<svg width="100" height="100" viewBox="0 0 100 100" fill="none" xmlns="http://www.w3.org/2000/svg">
<g filter="url(#filter0_d_606:17)">
<path d="M71.582 43.2578H74.3164C75.4232 43.2578 76.4648 43.3555 77.4414 43.5508C78.4831 43.7461 79.0039 44.4622 79.0039 45.6992C79.4596 48.3034 77.9297 49.5729 74.4141 49.5078C73.4375 49.4427 72.526 49.3776 71.6797 49.3125C70.8984 49.2474 70.2474 49.2474 69.7266 49.3125C69.2057 49.3125 68.9779 49.4753 69.043 49.8008C69.694 51.6888 70.3776 53.8047 71.0938 56.1484C71.875 58.4922 72.7214 60.8359 73.6328 63.1797C75.9766 68.974 78.1901 73.1406 80.2734 75.6797C79.1667 77.0469 77.8646 78.1862 76.3672 79.0977C74.9349 80.0091 74.1536 80.4648 74.0234 80.4648C73.9583 80.4648 73.8932 80.4323 73.8281 80.3672L60.0586 51.3633L33.3984 57.9062L32.4219 62.0078C30.5339 69.4948 28.418 74.7031 26.0742 77.6328C25.6836 78.2839 24.8698 78.349 23.6328 77.8281C21.5495 77.0469 20.5078 76.3958 20.5078 75.875C20.5078 75.7448 21.1914 73.8568 22.5586 70.2109C23.9258 66.5651 25.293 62.8867 26.6602 59.1758C28.0924 55.3997 29.5573 51.4609 31.0547 47.3594C32.6172 43.2578 34.082 39.3516 35.4492 35.6406C36.8164 31.9297 38.0534 28.6094 39.1602 25.6797C40.2669 22.6849 41.0482 20.5365 41.5039 19.2344C41.9596 17.8672 42.2526 16.6953 42.3828 15.7188C42.5781 14.6771 42.8385 13.7982 43.1641 13.082C43.8151 11.5846 45.4427 10.8359 48.0469 10.8359C50.8464 12.3984 52.9948 14.4492 54.4922 16.9883C56.0547 19.4622 57.3568 22.1315 58.3984 24.9961C59.5052 27.8607 60.5794 30.7578 61.6211 33.6875C62.6628 36.6172 64.0625 39.2865 65.8203 41.6953C66.4062 42.6068 67.2852 43.0951 68.457 43.1602C69.6289 43.2253 70.6706 43.2578 71.582 43.2578ZM47.168 22.1641C46.6471 26.1354 45.4753 30.2044 43.6523 34.3711C41.8294 38.5378 40.3646 41.793 39.2578 44.1367C38.151 46.4154 37.207 48.5312 36.4258 50.4844C40.8529 50.4844 46.2891 49.1823 52.7344 46.5781C54.362 45.862 55.9245 45.2109 57.4219 44.625C54.362 31.5391 50.944 24.0521 47.168 22.1641ZM77.4902 62.7891C80.7454 52.2422 84.5215 32.9714 88.8184 4.97656C92.9199 4.97656 95.0684 6.24609 95.2637 8.78516C95.3288 9.56641 95.3613 10.1198 95.3613 10.4453C95.4264 10.7708 95.3288 11.9102 95.0684 13.8633C94.8079 15.7513 94.4173 18.4206 93.8965 21.8711C93.4408 25.3216 92.8548 29.3255 92.1387 33.8828C91.4225 38.4401 90.6087 43.1927 89.6973 48.1406C87.4837 59.7943 85.2051 69.625 82.8613 77.6328C80.5176 79.2604 78.6947 79.5208 77.3926 78.4141C76.8066 77.8281 76.2858 77.0469 75.8301 76.0703C75.3743 75.0286 74.8535 73.8568 74.2676 72.5547C73.4212 71.4479 71.8587 68.5182 69.5801 63.7656C67.3014 59.013 65.446 55.237 64.0137 52.4375C62.6465 49.638 61.3118 47.0339 60.0098 44.625C57.015 39.2214 54.5085 36.0638 52.4902 35.1523C50.1465 38.7982 45.9798 48.7917 39.9902 65.1328C38.9486 67.9974 38.0046 70.6667 37.1582 73.1406C36.3118 75.5495 35.5957 77.5026 35.0098 79L28.9551 78.707L4.54102 22.2617C4.41081 21.9362 4.3457 21.6107 4.3457 21.2852C4.3457 20.9596 4.44336 20.6341 4.63867 20.3086C4.89909 19.9831 5.32227 19.6901 5.9082 19.4297C7.01497 19.0391 8.12174 18.8438 9.22852 18.8438C10.3353 18.8438 11.1165 19.0716 11.5723 19.5273C12.0931 19.918 12.4837 20.4388 12.7441 21.0898C13.0697 21.7409 13.3301 22.457 13.5254 23.2383C13.7207 24.0195 14.0788 25.0286 14.5996 26.2656C15.1855 27.5026 15.9993 29.3255 17.041 31.7344C18.1478 34.1432 19.3197 36.6823 20.5566 39.3516C21.7936 42.0208 23.0306 44.6901 24.2676 47.3594C25.5046 49.9635 26.6764 52.3724 27.7832 54.5859C30.127 59.4688 31.5918 62.2031 32.1777 62.7891C39.7298 44.1693 44.3848 33.1341 46.1426 29.6836C47.9004 26.168 49.0072 24.0195 49.4629 23.2383C50.179 22.1315 50.7324 21.5781 51.123 21.5781C53.9225 21.5781 58.6426 27.8281 65.2832 40.3281C67.1061 43.6484 68.7988 46.8385 70.3613 49.8984C74.2025 57.3203 76.5788 61.6172 77.4902 62.7891ZM49.1211 57.0273C47.4284 58.3945 45.8333 60.25 44.3359 62.5938C42.9036 64.9375 41.4062 67.2161 39.8438 69.4297C38.3464 71.6432 36.7513 73.5638 35.0586 75.1914C33.3659 76.819 31.5104 77.6328 29.4922 77.6328C27.5391 77.6328 26.1719 77.3724 25.3906 76.8516C24.6094 76.2656 24.2188 75.5495 24.2188 74.7031C24.2188 73.7917 24.2513 73.0755 24.3164 72.5547L42.8711 50.582C39.4857 46.4154 36.6211 42.8672 34.2773 39.9375C31.9987 37.0078 30.1107 34.599 28.6133 32.7109C27.1159 30.8229 25.944 29.3581 25.0977 28.3164C24.3164 27.2096 23.7305 26.4284 23.3398 25.9727C23.0143 25.4518 22.7865 25.0612 22.6562 24.8008C22.6562 23.4987 23.5352 22.5872 25.293 22.0664C26.7904 21.6107 28.0924 21.6758 29.1992 22.2617L47.9492 44.918L71.2891 17.3789L76.9531 21.9688L53.5156 49.8008C55.7292 52.7956 58.2357 55.3672 61.0352 57.5156C63.8997 59.599 66.569 61.5846 69.043 63.4727C71.5169 65.2956 73.5677 67.151 75.1953 69.0391C76.888 70.9271 77.7344 73.1406 77.7344 75.6797C77.5391 77.1771 76.8555 78.1862 75.6836 78.707C75.4232 78.8372 74.9674 78.9023 74.3164 78.9023C73.6654 78.9023 72.6888 78.4141 71.3867 77.4375L49.1211 57.0273Z" fill="#B28756"/>
</g>
<defs>
<filter id="filter0_d_606:17" x="0.345703" y="4.97656" width="99.1133" height="83.4883" filterUnits="userSpaceOnUse" color-interpolation-filters="sRGB">
<feFlood flood-opacity="0" result="BackgroundImageFix"/>
<feColorMatrix in="SourceAlpha" type="matrix" values="0 0 0 0 0 0 0 0 0 0 0 0 0 0 0 0 0 0 127 0" result="hardAlpha"/>
<feOffset dy="4"/>
<feGaussianBlur stdDeviation="2"/>
<feComposite in2="hardAlpha" operator="out"/>
<feColorMatrix type="matrix" values="0 0 0 0 0 0 0 0 0 0 0 0 0 0 0 0 0 0 0.25 0"/>
<feBlend mode="normal" in2="BackgroundImageFix" result="effect1_dropShadow_606:17"/>
<feBlend mode="normal" in="SourceGraphic" in2="effect1_dropShadow_606:17" result="shape"/>
</filter>
</defs>
</svg>
